# AST/ASF file generated using VICON BodyLanguage
# -----------------------------------------------
:version 1.10
:name VICON
:units
  mass 1.0
  length 0.45
  angle deg
:documentation
   .ast/.asf automatically generated from VICON data using
   VICON BodyBuilder and BodyLanguage model FoxedUp or BRILLIANT.MOD
:root
   order TX TY TZ RX RY RZ
   axis XYZ
   position 0 0 0  
   orientation 0 0 0 
:bonedata
  begin
     id 1 
     name lhipjoint
     direction 0.576517 -0.752066 0.319413 
     length 2.45433 
     axis 0 0 0  XYZ
  end
  begin
     id 2 
     name lfemur
     direction 0.34202 -0.939693 0  
     length 7.54459  
     axis 0 0 20  XYZ
    dof rx ry rz
    limits (-160.0 20.0)
           (-70.0 70.0)
           (-60.0 70.0)
  end
  begin
     id 3 
     name ltibia
     direction 0.34202 -0.939693 0   
     length 7.73986   
     axis 0 0 20   XYZ
    dof rx
    limits (-10.0 170.0)
  end
  begin
     id 4 
     name lfoot
     direction 0.090693 -0.249177 0.964202   
     length 2.28437   
     axis -90 7.62852e-016 20   XYZ
    dof rx rz
    limits (-45.0 90.0)
           (-70.0 20.0)
  end
  begin
     id 5 
     name ltoes
     direction 1.5356e-011 -4.21928e-011 1   
     length 1.14243   
     axis -90 7.62852e-016 20   XYZ
    dof rx
    limits (-90.0 20.0)
  end
  begin
     id 6 
     name rhipjoint
     direction -0.573937 -0.753736 0.320122   
     length 2.44889  
     axis 0 0 0  XYZ 
  end
  begin
     id 7 
     name rfemur
     direction -0.34202 -0.939693 0   
     length 7.50166   
     axis 0 0 -20   XYZ
    dof rx ry rz
    limits (-160.0 20.0)
           (-70.0 70.0)
           (-70.0 60.0)
  end
  begin
     id 8 
     name rtibia
     direction -0.34202 -0.939693 0   
     length 7.54266   
     axis 0 0 -20   XYZ
    dof rx
    limits (-10.0 170.0)
 end
 begin
     id 9 
     name rfoot
     direction -0.114017 -0.31326 0.942798   
     length 2.34212  
     axis -90 -7.62852e-016 -20   XYZ
    dof rx rz
    limits (-45.0 90.0)
           (-20.0 70.0)
  end
  begin
     id 10 
     name rtoes
     direction -1.53557e-011 -4.21867e-011 1   
     length 1.16246   
     axis -90 -7.62852e-016 -20   XYZ
    dof rx
    limits (-90.0 20.0)
  end
  begin
     id 11 
     name lowerback
     direction -0.0228371 0.999155 -0.034167   
     length 2.0537   
     axis 0 0 0   XYZ
    dof rx ry rz
    limits (-20.0 45.0)
           (-30.0 30.0)
           (-30.0 30.0)
  end
  begin
     id 12 
     name upperback
     direction 0.0198981 0.999794 0.00389455   
     length 2.05302   
     axis 0 0 0   XYZ
    dof rx ry rz
    limits (-20.0 45.0)
           (-30.0 30.0)
           (-30.0 30.0)
  end
  begin
     id 13 
     name thorax
     direction 0.0304566 0.99935 0.0192987   
     length 2.05315   
     axis 0 0 0   XYZ
    dof rx ry rz
    limits (-20.0 45.0)
           (-30.0 30.0)
           (-30.0 30.0)
  end
  begin
     id 14 
     name lowerneck
     direction -0.0196762 0.99417 0.106017   
     length 1.82056   
     axis 0 0 0   XYZ
    dof rx ry rz
    limits (-20.0 45.0)
           (-30.0 30.0)
           (-30.0 30.0)
  end
  begin
     id 15 
     name upperneck
     direction 0.00517787 0.9802 -0.197944   
     length 1.83835   
     axis 0 0 0   XYZ
    dof rx ry rz
    limits (-20.0 45.0)
           (-30.0 30.0)
           (-30.0 30.0)
  end
  begin
     id 16
     name head
     direction 0.00211419 0.996945 -0.078081  
     length 1.85629  
     axis 0 0 0   XYZ
    dof rx ry rz
    limits (-20.0 45.0)
           (-30.0 30.0)
           (-30.0 30.0)
  end
  begin
     id 17 
     name lclavicle
     direction 0.930001 0.365811 -0.0357824  
     length 3.81961  
     axis 0 0 0   XYZ
    dof ry rz
    limits (-20.0 10.0)
           (0.0 20.0)
  end
  begin
     id 18 
     name lhumerus
     direction 1 -4.48968e-011 -3.06644e-027   
     length 5.14507   
     axis 180 -30 -90   XYZ
    dof rx ry rz
    limits (-60.0 90.0)
           (-90.0 90.0)
           (-90.0 90.0)
  end
  begin
     id 19
     name lradius
     direction 1 -4.48965e-011 9.06925e-028   
     length 3.50646   
     axis 180 -30 -90   XYZ
    dof rx
    limits (-10.0 170.0)
  end
  begin
     id 20
     name lwrist
     direction 1 -4.48957e-011 1.03922e-027   
     length 1.75323   
     axis -2.56395e-016 90 90   XYZ
    dof ry
    limits (-180.0 0.0)
 end
  begin
     id 21 
     name lhand
     direction 1 -4.48967e-011 2.08017e-027   
     length 0.629969   
     axis -1.32723e-015 90 90   XYZ
    dof rx rz
    limits (-90.0 90.0)
           (-45.0 45.0)
  end
  begin
     id 22 
     name lfingers
     direction 1 -4.49089e-011 4.20095e-027   
     length 0.507897   
     axis -2.6545e-015 90 90   XYZ
    dof rx
    limits (0.0 90.0)
  end
  begin
     id 23
     name lthumb
     direction 0.707107 -6.35001e-011 0.707107   
     length 0.729241   
     axis -90 45 5.05613e-014   XYZ
    dof rx rz
    limits (-45.0 45.0)
           (-45.0 45.0)
  end
  begin
     id 24 
     name rclavicle
     direction -0.881882 0.464123 -0.0829113   
     length 3.47515  
     axis 0 0 0   XYZ 
    dof ry rz
    limits (-10.0 20.0)
           (-20.0 0.0)
  end
  begin
     id 25 
     name rhumerus
     direction -1 -4.48961e-011 -1.55672e-027  
     length 5.232   
     axis 180 30 90   XYZ
    dof rx ry rz
    limits (-90.0 60.0)
           (-90.0 90.0)
           (-90.0 90.0)
  end
  begin
     id 26 
     name rradius
     direction -1 -4.48963e-011 6.18178e-029   
     length 3.65641   
     axis 180 30 90   XYZ
    dof rx
    limits (-10.0 170.0)
  end
  begin
     id 27 
     name rwrist
     direction -1 -4.48982e-011 1.04136e-027   
     length 1.8282   
     axis -2.56395e-016 -90 -90   XYZ
    dof ry
    limits (-180.0 0.0)
  end
  begin
     id 28
     name rhand
     direction -1 -4.48929e-011 2.07378e-027   
     length 0.656807   
     axis -1.32723e-015 -90 -90   XYZ
    dof rx rz
    limits (-90.0 90.0)
           (-45.0 45.0)
  end
  begin
     id 29
     name rfingers
     direction -1 -4.489e-011 4.13816e-027   
     length 0.529535   
     axis -2.6545e-015 -90 -90   XYZ
    dof rx
    limits (0.0 90.0)
  end
  begin
     id 30
     name rthumb
     direction -0.707107 -6.34843e-011 0.707107   
     length 0.760309   
     axis -90 -45 -5.05613e-014   XYZ
    dof rx rz
    limits (-45.0 45.0)
           (-45.0 45.0)
  end
:hierarchy
  begin
    root lhipjoint rhipjoint lowerback
    lhipjoint lfemur
    lfemur ltibia
    ltibia lfoot
    lfoot ltoes
    rhipjoint rfemur
    rfemur rtibia
    rtibia rfoot
    rfoot rtoes
    lowerback upperback
    upperback thorax
    thorax lowerneck lclavicle rclavicle
    lowerneck upperneck
    upperneck head
    lclavicle lhumerus
    lhumerus lradius
    lradius lwrist
    lwrist lhand lthumb
    lhand lfingers
    rclavicle rhumerus
    rhumerus rradius
    rradius rwrist
    rwrist rhand rthumb
    rhand rfingers
  end

#!OML:ASF H:\ManfredETheater\Project 1\Capture day 1\Session 1\subject.ASF
:FULLY-SPECIFIED
:DEGREES
16
root -11.9531 15.6004 33.5708 -154.873 -6.67196 -190.641
lowerback 16.826 -2.29996 -2.82703
upperback -0.513263 -3.80572 -0.744219
thorax -9.88966 -1.73736 1.74919
lowerneck -17.5523 -4.23639 -4.52276
upperneck -4.8249 -5.83299 4.64659
head 1.73706 -3.15468 1.8883
rclavicle -1.86858e-014 -2.78299e-014
rhumerus -58.7541 -4.88831 -80.4761
rradius 67.3069
rwrist -9.18071
rhand -25.5349 7.10711
rfingers 7.12502
rthumb 0.994954 -22.8703
lclavicle -1.86858e-014 -2.78299e-014
lhumerus -37.163 -11.3381 101.445
lradius 108.527
lwrist 18.5657
lhand -20.4757 -10.0831
lfingers 7.12502
lthumb 5.88058 19.8153
rfemur -49.8767 -12.6999 15.979
rtibia 103.24
rfoot -2.79023 -4.61937
rtoes -28.6505
lfemur -37.6038 0.0931907 -30.9978
ltibia 60.8963
lfoot -34.0292 -12.0166
ltoes 3.98482
17
root -11.9627 15.6022 33.0567 -154.87 -6.59576 -191.128
lowerback 16.5426 -2.49109 -2.98609
upperback -0.608425 -4.08591 -0.802849
thorax -9.81509 -1.86497 1.8302
lowerneck -17.8005 -4.08606 -4.51259
upperneck -4.52807 -5.61544 4.38005
head 1.8601 -3.04459 1.80867
rclavicle 3.89618e-014 3.26007e-014
rhumerus -60.9664 -4.59292 -79.6783
rradius 67.318
rwrist -9.90856
rhand -25.4786 7.6329
rfingers 7.12502
rthumb 1.04934 -22.3443
lclavicle 3.89618e-014 3.26007e-014
lhumerus -35.5635 -11.8926 101.708
lradius 111.569
lwrist 19.4745
lhand -20.408 -10.0443
lfingers 7.12502
lthumb 5.94594 19.8522
rfemur -53.9123 -12.6718 15.8243
rtibia 103.818
rfoot -4.65038 -5.0354
rtoes -29.6111
lfemur -34.6663 0.308165 -31.1128
ltibia 59.1878
lfoot -33.8952 -12.961
ltoes 3.38388
18
root -11.9712 15.6177 32.5272 -154.921 -6.45283 -191.586
lowerback 16.2149 -2.68433 -3.15107
upperback -0.695264 -4.36757 -0.858771
thorax -9.70403 -1.99467 1.91271
lowerneck -18.1016 -3.88006 -4.48466
upperneck -4.11889 -5.31657 4.10073
head 2.02806 -2.89063 1.7273
rclavicle 1.98785e-014 7.95139e-015
rhumerus -63.111 -4.11187 -79.0302
rradius 67.4977
rwrist -10.4731
rhand -25.447 8.17697
rfingers 7.12502
rthumb 1.0798 -21.8
lclavicle 1.98785e-014 7.95139e-015
lhumerus -34.1242 -12.5646 101.832
lradius 114.738
lwrist 20.5607
lhand -20.3416 -10.0294
lfingers 7.12502
lthumb 6.01007 19.8654
rfemur -57.6236 -12.4341 15.6893
rtibia 103.649
rfoot -6.3108 -5.49014
rtoes -30.6689
lfemur -31.5632 0.612678 -31.1772
ltibia 57.2065
lfoot -33.2423 -14.1041
ltoes 2.67398
19
root -11.9785 15.6468 31.9823 -155.015 -6.249 -191.997
lowerback 15.8436 -2.8757 -3.30273
upperback -0.780713 -4.64064 -0.908478
thorax -9.56613 -2.12208 1.98702
lowerneck -18.3974 -3.64135 -4.43982
upperneck -3.66623 -4.97153 3.80774
head 2.20944 -2.71335 1.64307
rclavicle 3.57812e-015 1.51076e-014
rhumerus -65.1696 -3.52001 -78.5019
rradius 67.7697
rwrist -10.7245
rhand -25.4369 8.73579
rfingers 7.12502
rthumb 1.08964 -21.2412
lclavicle 3.57812e-015 1.51076e-014
lhumerus -32.8448 -13.3558 101.787
lradius 117.921
lwrist 21.681
lhand -20.2466 -10.0643
lfingers 7.12502
lthumb 6.10172 19.8279
rfemur -60.9687 -12.0057 15.5824
rtibia 102.757
rfoot -7.77867 -5.98054
rtoes -31.8542
lfemur -28.3414 0.958835 -31.1568
ltibia 54.9778
lfoot -31.962 -15.4678
ltoes 1.91696
20
root -11.985 15.6882 31.4236 -155.147 -5.99231 -192.353
lowerback 15.4413 -3.0592 -3.4153
upperback -0.865615 -4.89286 -0.953727
thorax -9.41246 -2.2423 2.03463
lowerneck -18.7018 -4.47848 -4.02502
upperneck -3.12457 -4.35014 3.56516
head 2.4218 -1.61641 1.56386
rclavicle 4.77083e-015 7.15625e-015
rhumerus -67.1357 -2.88656 -78.0648
rradius 68.0878
rwrist -10.6289
rhand -25.4583 9.27637
rfingers 7.12502
rthumb 1.06897 -20.7007
lclavicle 4.77083e-015 7.15625e-015
lhumerus -31.7317 -14.2541 101.573
lradius 121.025
lwrist 22.6811
lhand -20.1188 -10.1639
lfingers 7.12502
lthumb 6.22513 19.7247
rfemur -63.919 -11.4422 15.5061
rtibia 101.184
rfoot -9.05303 -6.4806
rtoes -33.0705
lfemur -25.0472 1.28784 -31.0374
ltibia 52.5477
lfoot -29.9383 -17.0316
ltoes 1.15392
21
root -11.9904 15.7393 30.8533 -155.324 -5.68072 -192.664
lowerback 15.0268 -3.22078 -3.50099
upperback -0.943606 -5.10928 -0.995895
thorax -9.24719 -2.34758 2.05886
lowerneck -18.965 -4.17519 -4.00361
upperneck -2.65201 -3.97657 3.27708
head 2.61005 -1.45913 1.49253
rclavicle 1.90833e-014 -2.54444e-014
rhumerus -68.9923 -2.26888 -77.6866
rradius 68.4106
rwrist -10.2645
rhand -25.4861 9.76763
rfingers 7.12502
rthumb 1.04208 -20.2096
lclavicle 1.90833e-014 -2.54444e-014
lhumerus -30.7958 -15.2288 101.218
lradius 123.97
lwrist 23.4011
lhand -19.9606 -10.327
lfingers 7.12502
lthumb 6.37785 19.557
rfemur -66.4544 -10.7892 15.4565
rtibia 98.9901
rfoot -10.1443 -6.97762
rtoes -34.2097
lfemur -21.7178 1.55991 -30.829
ltibia 49.9655
lfoot -27.028 -18.7428
ltoes 0.442761
22
root -11.9935 15.798 30.2731 -155.544 -5.30889 -192.957
lowerback 14.6174 -3.34738 -3.60262
upperback -1.01314 -5.28187 -1.03784
thorax -9.07589 -2.43194 2.08057
lowerneck -19.2096 -3.88585 -4.00404
upperneck -2.1876 -3.615 2.99589
head 2.79603 -1.30846 1.42758
rclavicle -1.98785e-015 3.97569e-015
rhumerus -70.7262 -1.70367 -77.3527
rradius 68.7135
rwrist -9.79415
rhand -25.5148 10.1891
rfingers 7.12502
rthumb 1.01435 -19.7882
lclavicle -1.98785e-015 3.97569e-015
lhumerus -30.059 -16.2283 100.774
lradius 126.691
lwrist 23.706
lhand -19.775 -10.5828
lfingers 7.12502
lthumb 6.55699 19.2957
rfemur -68.5701 -10.0828 15.4146
rtibia 96.2342
rfoot -11.0795 -7.45782
rtoes -35.2383
lfemur -18.3947 1.74085 -30.5689
ltibia 47.275
lfoot -23.0344 -20.4712
ltoes -0.135449
